<?xml version="1.0" encoding="UTF-8" standalone="no"?>
<!-- Created with Inkscape (http://www.inkscape.org/) -->

<svg
   xmlns:dc="http://purl.org/dc/elements/1.1/"
   xmlns:cc="http://creativecommons.org/ns#"
   xmlns:rdf="http://www.w3.org/1999/02/22-rdf-syntax-ns#"
   xmlns:svg="http://www.w3.org/2000/svg"
   xmlns="http://www.w3.org/2000/svg"
   xmlns:xlink="http://www.w3.org/1999/xlink"
   xmlns:sodipodi="http://sodipodi.sourceforge.net/DTD/sodipodi-0.dtd"
   xmlns:inkscape="http://www.inkscape.org/namespaces/inkscape"
   width="256"
   height="256"
   id="svg2"
   version="1.1"
   inkscape:version="0.48.4 r9939"
   sodipodi:docname="New document 1">
  <defs
     id="defs4">
    <linearGradient
       inkscape:collect="always"
       id="linearGradient3765">
      <stop
         style="stop-color:#ffffff;stop-opacity:1;"
         offset="0"
         id="stop3767" />
      <stop
         style="stop-color:#dadada;stop-opacity:1"
         offset="1"
         id="stop3769" />
    </linearGradient>
    <linearGradient
       id="linearGradient3757">
      <stop
         style="stop-color:#808080;stop-opacity:1;"
         offset="0"
         id="stop3759" />
      <stop
         style="stop-color:#d8d8d8;stop-opacity:1;"
         offset="1"
         id="stop3761" />
    </linearGradient>
    <linearGradient
       inkscape:collect="always"
       xlink:href="#linearGradient3757"
       id="linearGradient3763"
       x1="71.428574"
       y1="306.07645"
       x2="327.42856"
       y2="306.07645"
       gradientUnits="userSpaceOnUse"
       gradientTransform="matrix(0,1,-1,0,505.50504,106.64789)" />
    <linearGradient
       inkscape:collect="always"
       xlink:href="#linearGradient3765"
       id="linearGradient3771"
       x1="91.428574"
       y1="306.07645"
       x2="307.42856"
       y2="306.07645"
       gradientUnits="userSpaceOnUse"
       gradientTransform="translate(106.64789,-505.50504)" />
    <linearGradient
       inkscape:collect="always"
       xlink:href="#linearGradient3757"
       id="linearGradient3788"
       gradientUnits="userSpaceOnUse"
       gradientTransform="matrix(0,-1,-1,0,505.50504,505.47711)"
       x1="71.428574"
       y1="306.07645"
       x2="327.42856"
       y2="306.07645" />
    <filter
       inkscape:collect="always"
       id="filter3800"
       color-interpolation-filters="sRGB">
      <feGaussianBlur
         inkscape:collect="always"
         stdDeviation="3.84"
         id="feGaussianBlur3802" />
    </filter>
    <linearGradient
       inkscape:collect="always"
       xlink:href="#linearGradient3765"
       id="linearGradient3804"
       gradientUnits="userSpaceOnUse"
       gradientTransform="translate(106.64789,-505.50504)"
       x1="91.428574"
       y1="306.07645"
       x2="307.42856"
       y2="306.07645" />
  </defs>
  <sodipodi:namedview
     id="base"
     pagecolor="#ffffff"
     bordercolor="#666666"
     borderopacity="1.0"
     inkscape:pageopacity="0.0"
     inkscape:pageshadow="2"
     inkscape:zoom="1.0543467"
     inkscape:cx="-191.93775"
     inkscape:cy="16.395737"
     inkscape:document-units="px"
     inkscape:current-layer="layer1"
     showgrid="false"
     fit-margin-top="0"
     fit-margin-left="0"
     fit-margin-right="0"
     fit-margin-bottom="0"
     inkscape:window-width="1916"
     inkscape:window-height="1015"
     inkscape:window-x="0"
     inkscape:window-y="42"
     inkscape:window-maximized="0" />
  <metadata
     id="metadata7">
    <rdf:RDF>
      <cc:Work
         rdf:about="">
        <dc:format>image/svg+xml</dc:format>
        <dc:type
           rdf:resource="http://purl.org/dc/dcmitype/StillImage" />
        <dc:title></dc:title>
      </cc:Work>
    </rdf:RDF>
  </metadata>
  <g
     inkscape:label="Layer 1"
     inkscape:groupmode="layer"
     id="layer1"
     transform="translate(-71.4375,-178.0625)">
    <rect
       rx="36"
       y="-307.42859"
       x="198.07646"
       height="216"
       width="216"
       id="rect2987"
       style="fill:url(#linearGradient3804);fill-opacity:1;stroke:none"
       ry="36"
       transform="matrix(0,1,-1,0,0,0)" />
    <path
       style="opacity:0.5;fill:#000000;fill-opacity:1;stroke:none;filter:url(#filter3800)"
       d="m 119.4375,178.0625 c -26.592,0 -48,21.408 -48,48 l 0,160 c 0,26.592 21.408,48 48,48 l 160,0 c 26.592,0 48,-21.408 48,-48 l 0,-160 c 0,-26.592 -21.408,-48 -48,-48 l -160,0 z m 8,20 144,0 c 19.944,0 36,16.056 36,36 l 0,144 c 0,19.944 -16.056,36 -36,36 l -144,0 c -19.944,0 -36,-16.056 -36,-36 l 0,-144 c 0,-19.944 16.056,-36 36,-36 z"
       id="rect2985"
       inkscape:connector-curvature="0"
       transform="matrix(0.91691058,0,0,0.92414558,16.571146,23.216192)" />
    <path
       inkscape:connector-curvature="0"
       id="path3790"
       d="m 119.4375,434.0625 c -26.592,0 -48,-21.408 -48,-48 l 0,-160 c 0,-26.592 21.408,-48 48,-48 l 160,0 c 26.592,0 48,21.408 48,48 l 0,160 c 0,26.592 -21.408,48 -48,48 l -160,0 z m 8,-20 144,0 c 19.944,0 36,-16.056 36,-36 l 0,-144 c 0,-19.944 -16.056,-36 -36,-36 l -144,0 c -19.944,0 -36,16.056 -36,36 l 0,144 c 0,19.944 16.056,36 36,36 z"
       style="fill:url(#linearGradient3788);fill-opacity:1;stroke:none" />
  </g>
</svg>
